<?xml version="1.0" encoding="utf-8"?>
<svg xmlns="http://www.w3.org/2000/svg" width="100" height="100" fill="none" viewBox="0 0 100 100">
  <path fill="#fff" d="M100 50c0-27.55-22.45-50-50-50S0 22.45 0 50c0 14.5 6.25 27.55 16.15 36.7 0 .05 0 .05-.05.1.5.5 1.1.9 1.6 1.35.3.25.55.5.85.7.9.75 1.9 1.45 2.85 2.15.35.25.65.45 1 .7.95.65 1.95 1.25 3 1.8.35.2.75.45 1.1.65 1 .55 2.05 1.05 3.15 1.5.4.2.8.4 1.2.55 1.1.45 2.2.85 3.3 1.2.4.15.8.3 1.2.4 1.2.35 2.4.65 3.6.95.35.1.7.2 1.1.25 1.4.3 2.8.5 4.25.65.2 0 .4.05.6.1 1.7.15 3.4.25 5.1.25 1.7 0 3.4-.1 5.05-.25.2 0 .4-.05.6-.1 1.45-.15 2.85-.35 4.25-.65.35-.05.7-.2 1.1-.25 1.2-.3 2.45-.55 3.6-.95.4-.15.8-.3 1.2-.4 1.1-.4 2.25-.75 3.3-1.2.4-.15.8-.35 1.2-.55 1.05-.45 2.1-.95 3.15-1.5.4-.2.75-.45 1.1-.65 1-.6 2-1.15 3-1.8.35-.2.65-.45 1-.7 1-.7 1.95-1.4 2.85-2.15.3-.25.55-.5.85-.7.55-.45 1.1-.9 1.6-1.35 0-.05 0-.05-.05-.1C93.75 77.55 100 64.5 100 50ZM74.7 74.85c-13.55-9.1-35.75-9.1-49.4 0-2.2 1.45-4 3.15-5.5 5C12.2 72.15 7.5 61.6 7.5 50 7.5 26.55 26.55 7.5 50 7.5S92.5 26.55 92.5 50c0 11.6-4.7 22.15-12.3 29.85-1.45-1.85-3.3-3.55-5.5-5Z"/>
  <path fill="#fff" d="M50 24.648c-10.35 0-18.75 8.4-18.75 18.75 0 10.15 7.95 18.4 18.5 18.7h.9c10.1-.35 18.05-8.55 18.1-18.7 0-10.35-8.4-18.75-18.75-18.75Z"/>
</svg>
