<?xml version="1.0" encoding="utf-8"?>
<svg xmlns="http://www.w3.org/2000/svg" width="91" height="100" fill="none" viewBox="0 0 91 100">
  <path fill="#fff" d="M45.178 89.46c-11.971 0-23.942-1.711-35.297-5.132-4.315-1.341-7.603-4.069-9.042-7.629-1.49-3.56-.976-7.49 1.387-11.003l5.909-8.83c1.233-1.85 2.363-5.549 2.363-7.722v-13.36c0-17.2 15.567-31.208 34.68-31.208 19.112 0 34.68 14.009 34.68 31.207v13.361c0 2.127 1.13 5.872 2.363 7.767l5.857 8.785c2.209 3.329 2.62 7.35 1.13 11.003-1.49 3.653-4.727 6.426-8.785 7.629-11.303 3.42-23.274 5.131-35.245 5.131Zm0-77.949c-14.848 0-26.973 10.865-26.973 24.272v13.361c0 3.375-1.542 8.369-3.443 11.281l-5.908 8.83c-1.13 1.711-1.439 3.514-.77 5.04.616 1.572 2.157 2.774 4.264 3.421a113.614 113.614 0 0 0 65.711 0c1.85-.555 3.288-1.803 3.956-3.467.668-1.665.514-3.468-.514-4.993l-5.908-8.83c-1.952-3.006-3.442-7.953-3.442-11.328V35.783c0-13.407-12.074-24.272-26.973-24.272Z"/>
  <path fill="#fff" d="M54.732 12.76c-.36 0-.72-.046-1.079-.139a39.76 39.76 0 0 0-4.315-.832c-4.367-.508-8.58-.23-12.536.832-1.439.416-2.98 0-3.956-.97-.976-.971-1.285-2.358-.72-3.607C34.233 3.19 39.37 0 45.227 0c5.857 0 10.995 3.144 13.102 8.044.513 1.249.257 2.636-.72 3.606-.77.74-1.85 1.11-2.877 1.11ZM45.175 100c-5.086 0-10.018-1.85-13.614-5.086-3.597-3.236-5.652-7.674-5.652-12.251h7.707c0 2.727 1.233 5.409 3.39 7.35 2.158 1.942 5.138 3.052 8.17 3.052 6.37 0 11.56-4.67 11.56-10.402h7.706c0 9.57-8.632 17.337-19.267 17.337Z"/>
</svg>
